<svg width="1440" height="504" viewBox="0 0 1440 504" fill="none" xmlns="http://www.w3.org/2000/svg">
<path d="M1340.55 100.133C1304.47 124.386 1276.01 145.089 1200.38 203.493L1449.57 191.845L1449.57 65.8449C1403.4 70.4888 1385.95 72.8444 1340.55 100.133Z" fill="#014E1A"/>
<path d="M30.7199 69.5917C67.0337 106.194 95.1793 137.297 168.914 224.756L6.57267 197.345L-70.9273 10.3452C-16.0966 19.7374 -15.9947 28.1171 30.7199 69.5917Z" fill="#014E1A"/>
<path d="M32.0428 146.72C83.1795 170.628 123.833 191.773 232.561 252.884L-129.874 323.799L-126.546 123.845C-66.431 116.069 -31.6488 121.331 32.0428 146.72Z" fill="#3F7E44"/>
<path d="M1297.33 159.33L1318.93 153.172C1376.6 134.5 1388.57 139.898 1455.84 153.172L1455.84 290.136L1042 290.136L1120.88 212.114L1151.1 206.061L1213.75 187.562L1261.32 170.306L1297.33 159.33Z" fill="#3F7E44"/>
<path d="M1483 255.06V529H-14V274.293C7.90909 274.245 20.3545 274.105 44.2571 272.734L127.482 261.818L217.988 245.704C252.873 238.924 273.976 235.981 314.216 232.189C445.089 294.904 527.613 298.457 680.924 283.65L704.331 279.491L726.178 274.813L771.431 260.778L805.761 247.783L831.769 239.466L847.373 234.788C889.012 220.672 914.487 219.479 963.367 228.55C1003.11 238.351 1035.01 247.671 1120.97 275.853C1152.14 280.326 1167.48 280.96 1190.67 278.452C1221.46 271.445 1234.65 265.691 1256.21 254.54C1310.07 216.08 1338.78 202.641 1379.49 201C1420.79 204.375 1449.89 219.517 1483 255.06Z" fill="#0A142F"/>
</svg>
