<svg width="1521" height="328" viewBox="0 0 1521 328" fill="none" xmlns="http://www.w3.org/2000/svg">
<path d="M1521 73.2969V328H0V73.2934C21.9091 73.2452 34.3545 73.1052 58.2571 71.7339L141.482 60.818L231.988 44.7039C266.873 37.9237 287.976 34.9815 328.216 31.1888C459.089 93.9041 541.613 97.4573 694.924 82.6499L718.331 78.4915L740.178 73.8132L785.431 59.7783L819.761 46.7831L845.769 38.4662L861.373 33.7879C903.012 19.6717 928.487 18.4787 977.367 27.5502C1017.11 37.3512 1049.01 46.6708 1134.97 74.8528C1166.14 79.3264 1181.48 79.9604 1204.67 77.4519C1235.46 70.4454 1248.65 64.6914 1270.21 53.5404C1324.07 15.0798 1352.78 1.64121 1393.49 0C1441 38.4662 1462 63.2969 1521 73.2969Z" fill="#0A142F"/>
</svg>
