<svg width="239" height="85" viewBox="0 0 239 85" fill="none" xmlns="http://www.w3.org/2000/svg">
<mask id="mask0_390_611" style="mask-type:luminance" maskUnits="userSpaceOnUse" x="0" y="0" width="239" height="85">
<path d="M0 84.75H239V-7.62939e-06H0V84.75Z" fill="white"/>
</mask>
<g mask="url(#mask0_390_611)">
<path fill-rule="evenodd" clip-rule="evenodd" d="M1.13916 31.1816C14.9155 23.3011 28.5881 15.4226 42.3667 7.54207C51.4479 1.26157 59.7604 0.00168991 66.3785 9.78256C70.432 15.1958 74.4855 20.6091 78.539 26.0245C80.5911 28.7312 83.6705 29.0104 87.7748 26.8644C92.8024 24.0444 97.8324 21.2286 102.86 18.4085V21.7745C95.9349 25.7578 89.0052 29.7412 82.08 33.7245C74.5363 37.2269 69.2524 35.5933 64.9934 31.6247C63.5576 29.6635 62.1195 27.7044 60.6837 25.7452C51.2932 18.4148 43.5971 16.735 36.672 17.6232C39.2597 15.851 41.298 13.8667 52.6806 15.5213C51.7572 14.4021 50.8339 13.2829 49.9082 12.1616C47.2928 9.82036 44.6751 10.7569 42.0597 12.1616L1.13916 34.8563V31.1816Z" fill="#89B6E3"/>
<path fill-rule="evenodd" clip-rule="evenodd" d="M1.13916 38.0811C10.1765 32.8946 19.1999 27.706 28.2695 22.5195C37.353 16.2411 45.6631 14.9791 52.2835 24.76C56.337 30.1733 60.3882 35.5887 64.4441 41.0019C66.4962 43.7086 69.5733 43.99 73.6799 41.8419C78.7098 39.0218 97.5646 27.8572 102.86 24.8776V28.2415C95.7341 32.3445 74.9125 44.7186 67.9828 48.7019C60.3444 52.0217 54.8781 50.8479 50.8985 46.6021L35.8133 27.1412C33.1956 24.7978 30.5802 25.7343 27.9625 27.1412C19.0221 32.0988 10.0795 37.0585 1.13916 42.0162V38.0811Z" fill="#4790D4"/>
<path fill-rule="evenodd" clip-rule="evenodd" d="M1.13916 45.0796C14.0176 37.7009 3.09666 43.53 16.8153 35.6851C25.8965 29.4067 34.209 28.1468 40.8271 37.9256C44.8806 43.341 48.9341 48.7543 52.9876 54.1676C55.0397 56.8763 58.1191 57.1556 62.2234 55.0075C67.3041 52.1623 97.7793 34.4714 102.86 31.6262V34.988C95.8818 39.0028 63.5069 57.8569 56.5286 61.8696C48.9849 65.37 43.701 63.7364 39.442 59.7677C38.0062 57.8086 36.5681 55.8474 35.1323 53.8883C25.7418 46.56 18.0457 44.8801 11.1206 45.7663C13.7083 43.9961 15.7466 42.0097 27.1292 43.6665C26.2058 42.5473 25.2825 41.426 24.3568 40.3068C21.7414 37.9634 19.1237 38.902 16.5083 40.3068C2.92815 47.8367 13.9229 41.7179 1.13916 48.8068V45.0796Z" fill="#293A83"/>
<path fill-rule="evenodd" clip-rule="evenodd" d="M217.608 7.16908H222.206L238.171 43.8316H234.115L229.865 33.8533H209.302L205.071 43.8316H201.246L217.608 7.16908ZM219.824 10.2159L210.802 30.7792H228.528L219.824 10.2159ZM161.182 7.16908H165.944L185.664 37.9227C185.8 38.1159 185.967 38.4246 186.179 38.8551C186.382 39.2771 186.624 39.8147 186.885 40.4488C186.77 39.7979 186.682 39.1994 186.615 38.6451C186.546 38.097 186.518 37.6057 186.518 37.1731V7.16908H190.004V43.8316H185.491L165.489 12.8217C165.267 12.4627 165.053 12.0658 164.87 11.6353C164.676 11.2028 164.492 10.6925 164.328 10.1109C164.443 10.955 164.522 11.6521 164.579 12.2149C164.637 12.7692 164.667 13.1493 164.667 13.3341V43.8316H161.182V7.16908ZM130.323 7.16908H134.921L150.886 43.8316H146.83L142.581 33.8533H122.018L117.786 43.8316H113.961L130.323 7.16908ZM132.542 10.2159L123.518 30.7792H141.244L132.542 10.2159Z" fill="#293A83"/>
<path fill-rule="evenodd" clip-rule="evenodd" d="M230.744 81.4648L232.039 81.3577C232.099 81.8449 232.24 82.2418 232.466 82.5546C232.69 82.8675 233.039 83.1174 233.51 83.3106C233.981 83.5016 234.511 83.5961 235.1 83.5961C235.624 83.5961 236.086 83.5247 236.487 83.3798C236.889 83.2329 237.189 83.0334 237.383 82.7814C237.579 82.5252 237.679 82.2481 237.679 81.9478C237.679 81.6433 237.584 81.3787 237.392 81.1499C237.205 80.921 236.894 80.732 236.46 80.5787C236.18 80.4758 235.569 80.3183 234.613 80.1042C233.662 79.8879 232.993 79.6863 232.612 79.4973C232.115 79.2558 231.746 78.9514 231.504 78.5923C231.261 78.2332 231.139 77.8301 231.139 77.3828C231.139 76.8957 231.287 76.4358 231.584 76.0116C231.88 75.5833 232.316 75.2599 232.886 75.0373C233.459 74.819 234.091 74.7077 234.791 74.7077C235.559 74.7077 236.236 74.8232 236.827 75.0562C237.413 75.2872 237.866 75.6274 238.179 76.0788C238.496 76.5282 238.667 77.0384 238.69 77.6096L237.374 77.702C237.302 77.0888 237.062 76.6227 236.654 76.3098C236.245 75.9969 235.645 75.8395 234.848 75.8395C234.015 75.8395 233.413 75.9822 233.032 76.2678C232.653 76.5534 232.462 76.8978 232.462 77.2967C232.462 77.6474 232.598 77.9351 232.866 78.1576C233.131 78.3844 233.819 78.6154 234.936 78.8506C236.051 79.0879 236.815 79.2936 237.233 79.47C237.836 79.7325 238.283 80.0622 238.57 80.4611C238.858 80.8601 239.001 81.322 239.001 81.8428C239.001 82.3614 238.844 82.8465 238.526 83.3022C238.209 83.7599 237.755 84.1148 237.164 84.3689C236.573 84.625 235.906 84.751 235.167 84.751C234.225 84.751 233.44 84.625 232.808 84.3647C232.171 84.1106 231.674 83.7263 231.312 83.2098C230.952 82.6974 230.76 82.1137 230.744 81.4648ZM222.351 80.5976H225.871L224.786 77.9078C224.458 77.0909 224.211 76.419 224.052 75.892C223.918 76.5177 223.734 77.1329 223.491 77.7482L222.351 80.5976ZM219.359 84.5851L223.346 74.8715H224.823L229.068 84.5851H227.503L226.294 81.6433H221.954L220.818 84.5851H219.359ZM215.795 74.8715H217.169V80.4842C217.169 81.4606 217.051 82.2355 216.815 82.8108C216.578 83.384 216.153 83.8502 215.537 84.2093C214.92 84.5725 214.115 84.751 213.113 84.751C212.143 84.751 211.345 84.5935 210.731 84.2786C210.112 83.9678 209.671 83.5121 209.406 82.92C209.14 82.3236 209.011 81.5152 209.011 80.4842V74.8715H210.382V80.4779C210.382 81.322 210.467 81.9436 210.634 82.3425C210.8 82.7415 211.091 83.0502 211.497 83.2665C211.903 83.4827 212.404 83.5919 212.993 83.5919C214.004 83.5919 214.722 83.3777 215.153 82.9473C215.58 82.521 215.795 81.6979 215.795 80.4779V74.8715ZM201.527 80.774V79.638L205.92 79.6317V83.2329C205.246 83.7368 204.551 84.1148 203.833 84.3689C203.115 84.625 202.379 84.751 201.626 84.751C200.606 84.751 199.678 84.5473 198.847 84.1379C198.014 83.7305 197.386 83.1384 196.961 82.3656C196.536 81.5929 196.324 80.7299 196.324 79.7745C196.324 78.8296 196.536 77.9477 196.959 77.1287C197.379 76.3077 197.986 75.7009 198.78 75.3019C199.572 74.9072 200.486 74.7077 201.52 74.7077C202.268 74.7077 202.947 74.8211 203.552 75.0499C204.159 75.2746 204.634 75.5917 204.978 75.999C205.324 76.4064 205.585 76.9356 205.765 77.5886L204.526 77.9078C204.369 77.4122 204.177 77.0237 203.946 76.7403C203.715 76.4589 203.383 76.2321 202.954 76.062C202.527 75.892 202.049 75.8059 201.527 75.8059C200.897 75.8059 200.354 75.8962 199.897 76.0767C199.438 76.2552 199.071 76.4904 198.789 76.7802C198.51 77.072 198.293 77.3912 198.134 77.7419C197.871 78.3424 197.739 78.9934 197.739 79.6968C197.739 80.5619 197.898 81.2863 198.217 81.8701C198.535 82.4517 198.999 82.8843 199.609 83.1678C200.216 83.4491 200.862 83.5919 201.546 83.5919C202.141 83.5919 202.723 83.4827 203.288 83.2686C203.854 83.0565 204.281 82.8276 204.574 82.584V80.774H201.527ZM188.669 74.2751L189.614 72.421H191.28L189.727 74.2751H188.669ZM187.813 80.5976H191.333L190.248 77.9078C189.918 77.0909 189.674 76.419 189.514 75.892C189.38 76.5177 189.193 77.1329 188.953 77.7482L187.813 80.5976ZM184.819 84.5851L188.806 74.8715H190.283L194.53 84.5851H192.965L191.756 81.6433H187.416L186.278 84.5851H184.819ZM172.296 84.5851V74.8715H179.796V76.0179H173.667V78.9934H179.406V80.1336H173.667V83.4386H180.038V84.5851H172.296ZM162.128 83.4386H164.344C165.027 83.4386 165.565 83.3798 165.955 83.2602C166.343 83.1405 166.652 82.9725 166.883 82.7562C167.211 82.4517 167.465 82.0402 167.645 81.5278C167.827 81.0113 167.919 80.3897 167.919 79.6548C167.919 78.6406 167.739 77.8595 167.384 77.3156C167.026 76.7676 166.594 76.4043 166.084 76.2174C165.717 76.0851 165.124 76.0179 164.309 76.0179H162.128V83.4386ZM160.757 84.5851V74.8715H164.33C165.136 74.8715 165.752 74.9197 166.177 75.0121C166.77 75.1402 167.278 75.3712 167.698 75.7072C168.245 76.1418 168.656 76.6941 168.926 77.3681C169.198 78.0422 169.334 78.8107 169.334 79.6758C169.334 80.4128 169.242 81.0659 169.055 81.637C168.873 82.2061 168.637 82.6785 168.349 83.0523C168.06 83.426 167.746 83.72 167.405 83.9321C167.063 84.1463 166.65 84.3101 166.167 84.4192C165.683 84.5305 165.126 84.5851 164.501 84.5851H160.757ZM149.15 84.5851V74.8715H150.526V83.4386H155.632V84.5851H149.15ZM140.35 80.5976H143.871L142.786 77.9078C142.456 77.0909 142.211 76.419 142.049 75.892C141.918 76.5177 141.731 77.1329 141.491 77.7482L140.35 80.5976ZM137.357 84.5851L141.343 74.8715H142.82L147.068 84.5851H145.5L144.293 81.6433H139.953L138.815 84.5851H137.357ZM126.971 84.5851V74.8715H128.382L133.829 82.4979V74.8715H135.145V84.5851H133.737L128.289 76.9524V84.5851H126.971ZM115.667 79.8753C115.667 81.047 116.002 81.9667 116.673 82.6407C117.348 83.3148 118.192 83.6507 119.206 83.6507C120.24 83.6507 121.089 83.3127 121.757 82.6302C122.424 81.9499 122.758 80.9861 122.758 79.7346C122.758 78.9451 122.613 78.2563 122.329 77.6663C122.045 77.0741 121.625 76.6185 121.078 76.293C120.526 75.9697 119.91 75.8059 119.227 75.8059C118.255 75.8059 117.419 76.1187 116.717 76.7445C116.018 77.3702 115.667 78.4138 115.667 79.8753ZM114.252 79.8543C114.252 78.2416 114.714 76.9797 115.637 76.0683C116.563 75.157 117.756 74.7014 119.22 74.7014C120.175 74.7014 121.041 74.9156 121.81 75.3439C122.578 75.7723 123.165 76.3707 123.569 77.1371C123.97 77.9015 124.171 78.7708 124.171 79.7409C124.171 80.7278 123.961 81.6097 123.536 82.3845C123.112 83.1636 122.509 83.7515 121.731 84.1505C120.953 84.5515 120.115 84.751 119.213 84.751C118.234 84.751 117.364 84.5305 116.595 84.0875C115.824 83.6465 115.242 83.0439 114.845 82.2774C114.451 81.5152 114.252 80.7068 114.252 79.8543ZM109.831 74.8715H111.203V84.583H109.831V74.8715ZM105.489 81.1793L106.863 81.5047C106.577 82.5588 106.057 83.363 105.309 83.9195C104.561 84.4738 103.647 84.751 102.567 84.751C101.447 84.751 100.54 84.5368 99.8385 84.1127C99.139 83.6843 98.6035 83.067 98.2411 82.2607C97.8764 81.4501 97.6917 80.5829 97.6917 79.6548C97.6917 78.6448 97.8971 77.7629 98.3103 77.0091C98.7235 76.2573 99.3099 75.6841 100.074 75.2935C100.833 74.9009 101.674 74.7077 102.588 74.7077C103.627 74.7077 104.499 74.9533 105.205 75.4489C105.914 75.9445 106.406 76.6395 106.685 77.5361L105.335 77.8364C105.092 77.1266 104.744 76.6143 104.287 76.2909C103.83 75.9675 103.255 75.8059 102.56 75.8059C101.761 75.8059 101.097 75.9843 100.561 76.3434C100.025 76.7025 99.6492 77.1812 99.4322 77.786C99.2152 78.3865 99.1067 79.0081 99.1067 79.6485C99.1067 80.4758 99.236 81.1961 99.4899 81.8113C99.7508 82.4286 100.148 82.8885 100.693 83.1951C101.235 83.4995 101.821 83.6507 102.454 83.6507C103.223 83.6507 103.874 83.4428 104.407 83.0292C104.94 82.6134 105.3 81.9961 105.489 81.1793ZM89.2292 80.5976H92.7495L91.6645 77.9078C91.3367 77.0909 91.0897 76.419 90.9305 75.892C90.7966 76.5177 90.6119 77.1329 90.3695 77.7482L89.2292 80.5976ZM86.2375 84.5851L90.2218 74.8715H91.6992L95.9466 84.5851H94.3815L93.1719 81.6433H88.8321L87.6964 84.5851H86.2375ZM75.8521 84.5851V74.8715H77.2603L82.7103 82.4979V74.8715H84.0261V84.5851H82.618L77.1679 76.9524V84.5851H75.8521ZM64.825 80.5976H68.3453L67.2604 77.9078C66.9326 77.0909 66.6856 76.419 66.5263 75.892C66.3924 76.5177 66.2077 77.1329 65.9654 77.7482L64.825 80.5976ZM61.8334 84.5851L65.8176 74.8715H67.295L71.5424 84.5851H69.9773L68.7677 81.6433H64.428L63.2923 84.5851H61.8334ZM58.1354 74.8715H59.5065V84.583H58.1354V74.8715ZM53.7933 81.1793L55.1668 81.5047C54.8783 82.5588 54.3589 83.363 53.6133 83.9195C52.8653 84.4738 51.9512 84.751 50.8709 84.751C49.7513 84.751 48.8419 84.5368 48.1424 84.1127C47.443 83.6843 46.9074 83.067 46.5427 82.2607C46.178 81.4501 45.9956 80.5829 45.9956 79.6548C45.9956 78.6448 46.2011 77.7629 46.6143 77.0091C47.0252 76.2573 47.6138 75.6841 48.3779 75.2935C49.1373 74.9009 49.9753 74.7077 50.8917 74.7077C51.9304 74.7077 52.8007 74.9533 53.5094 75.4489C54.2181 75.9445 54.7097 76.6395 54.9867 77.5361L53.6386 77.8364C53.3963 77.1266 53.0477 76.6143 52.5883 76.2909C52.1336 75.9675 51.5588 75.8059 50.8617 75.8059C50.0653 75.8059 49.4005 75.9843 48.8649 76.3434C48.3294 76.7025 47.9531 77.1812 47.7361 77.786C47.5191 78.3865 47.4107 79.0081 47.4107 79.6485C47.4107 80.4758 47.5376 81.1961 47.7938 81.8113C48.0524 82.4286 48.4517 82.8885 48.9965 83.1951C49.539 83.4995 50.1253 83.6507 50.7578 83.6507C51.5265 83.6507 52.1751 83.4428 52.7107 83.0292C53.2439 82.6134 53.604 81.9961 53.7933 81.1793ZM34.8669 84.5851V74.8715H36.275L41.7251 82.4979V74.8715H43.0409V84.5851H41.6305L36.1827 76.9524V84.5851H34.8669ZM28.0549 73.1496L27.2539 74.2751H25.795L27.3255 72.421H28.6851L30.2756 74.2751H28.8305L28.0549 73.1496ZM24.1999 84.5851V74.8715H31.6998V76.0179H25.5711V78.9934H31.3097V80.1336H25.5711V83.4386H31.9399V84.5851H24.1999ZM16.7069 80.774V79.638L21.0998 79.6317V83.2329C20.428 83.7368 19.7309 84.1148 19.0153 84.3689C18.2974 84.625 17.561 84.751 16.8062 84.751C15.7882 84.751 14.8602 84.5473 14.0292 84.1379C13.1959 83.7305 12.568 83.1384 12.1433 82.3656C11.7162 81.5929 11.5039 80.7299 11.5039 79.7745C11.5039 78.8296 11.7162 77.9477 12.141 77.1287C12.5611 76.3077 13.1682 75.7009 13.9623 75.3019C14.754 74.9072 15.6659 74.7077 16.7 74.7077C17.4502 74.7077 18.1266 74.8211 18.7337 75.0499C19.3408 75.2746 19.8163 75.5917 20.1603 75.999C20.5042 76.4064 20.7651 76.9356 20.9474 77.5886L19.7078 77.9078C19.5509 77.4122 19.357 77.0237 19.1284 76.7403C18.8953 76.4589 18.5652 76.2321 18.1358 76.062C17.7088 75.892 17.2286 75.8059 16.7069 75.8059C16.0791 75.8059 15.5366 75.8962 15.0795 76.0767C14.6202 76.2552 14.2531 76.4904 13.9715 76.7802C13.6899 77.072 13.4729 77.3912 13.3159 77.7419C13.0528 78.3424 12.9212 78.9934 12.9212 79.6968C12.9212 80.5619 13.0805 81.2863 13.399 81.8701C13.7176 82.4517 14.1816 82.8843 14.7887 83.1678C15.3981 83.4491 16.0421 83.5919 16.7277 83.5919C17.3233 83.5919 17.9027 83.4827 18.4682 83.2686C19.0361 83.0565 19.4631 82.8276 19.7563 82.584V80.774H16.7069ZM2.99287 80.5976H6.51315L5.42821 77.9078C5.10042 77.0909 4.85342 76.419 4.69414 75.892C4.56257 76.5177 4.3756 77.1329 4.13322 77.7482L2.99287 80.5976ZM0.0012207 84.5851L3.98778 74.8715H5.46514L9.71256 84.5851H8.14517L6.93558 81.6433H2.59814L1.46011 84.5851H0.0012207Z" fill="#293A83"/>
</g>
</svg>
